<svg xmlns="http://www.w3.org/2000/svg" width="1440" height="1000" fill="none" viewBox="0 0 1440 1000"><path stroke="#f1f5f9" d="M80 79.5h1280M80 919.5h1280"/><g clip-path="url(#clip0_9428_4856)"><g clip-path="url(#clip1_9428_4856)"><path stroke="#e2e8f0" stroke-width=".6" d="M78 55v1282M129.27 55v1282M180.541 55v1282m51.27-1282v1282m51.27-1282v1282M334.352 55v1282m51.27-1282v1282m51.27-1282v1282M488.163 55v1282m51.27-1282v1282m51.27-1282v1282M641.974 55v1282m51.27-1282v1282m51.27-1282v1282M795.785 55v1282m51.27-1282v1282m51.27-1282v1282M949.596 55v1282M1000.87 55v1282m51.27-1282v1282m51.27-1282v1282m51.27-1282v1282m51.27-1282v1282m51.27-1282v1282m51.27-1282v1282m51.27-1282v1282M80.243 1310.4H1362M80.243 1259.12H1362M80.243 1207.84H1362M80.243 1156.56H1362M80.243 1105.28H1362M80.243 1054H1362M80.243 1002.72H1362M80.243 951.438H1362M80.243 900.158H1362M80.243 848.878H1362M80.243 797.598H1362M80.243 746.318H1362M80.243 695.038H1362M80.243 643.758H1362M80.243 592.478H1362M80.243 541.198H1362M80.243 489.918H1362M80.243 438.637H1362M80.243 387.357H1362M80.243 336.077H1362M80.243 284.797H1362M80.243 233.517H1362M80.243 182.237H1362M80.243 130.957H1362M80.243 79.677H1362" opacity=".4"/></g><path fill="url(#paint0_linear_9428_4856)" d="M82 388h284v531H82z"/><path fill="url(#paint1_linear_9428_4856)" d="M993 388h366v531H993z"/></g><g filter="url(#filter0_d_9428_4856)"><rect width="9" height="9" x="1355" y="75" fill="#fff" rx="3"/><rect width="8" height="8" x="1355.5" y="75.5" stroke="#e2e8f0" rx="2.5"/></g><g filter="url(#filter1_d_9428_4856)"><rect width="9" height="9" x="1355" y="915" fill="#fff" rx="3"/><rect width="8" height="8" x="1355.5" y="915.5" stroke="#e2e8f0" rx="2.5"/></g><g filter="url(#filter2_d_9428_4856)"><rect width="9" height="9" x="76" y="75" fill="#fff" rx="3"/><rect width="8" height="8" x="76.5" y="75.5" stroke="#e2e8f0" rx="2.5"/></g><g filter="url(#filter3_d_9428_4856)"><rect width="9" height="9" x="76" y="915" fill="#fff" rx="3"/><rect width="8" height="8" x="76.5" y="915.5" stroke="#e2e8f0" rx="2.5"/></g><defs><filter id="filter0_d_9428_4856" width="17" height="17" x="1351" y="73" color-interpolation-filters="sRGB" filterUnits="userSpaceOnUse"><feFlood flood-opacity="0" result="BackgroundImageFix"/><feColorMatrix in="SourceAlpha" result="hardAlpha" values="0 0 0 0 0 0 0 0 0 0 0 0 0 0 0 0 0 0 127 0"/><feOffset dy="2"/><feGaussianBlur stdDeviation="2"/><feComposite in2="hardAlpha" operator="out"/><feColorMatrix values="0 0 0 0 0.2 0 0 0 0 0.254902 0 0 0 0 0.333333 0 0 0 0.08 0"/><feBlend in2="BackgroundImageFix" result="effect1_dropShadow_9428_4856"/><feBlend in="SourceGraphic" in2="effect1_dropShadow_9428_4856" result="shape"/></filter><filter id="filter1_d_9428_4856" width="17" height="17" x="1351" y="913" color-interpolation-filters="sRGB" filterUnits="userSpaceOnUse"><feFlood flood-opacity="0" result="BackgroundImageFix"/><feColorMatrix in="SourceAlpha" result="hardAlpha" values="0 0 0 0 0 0 0 0 0 0 0 0 0 0 0 0 0 0 127 0"/><feOffset dy="2"/><feGaussianBlur stdDeviation="2"/><feComposite in2="hardAlpha" operator="out"/><feColorMatrix values="0 0 0 0 0.2 0 0 0 0 0.254902 0 0 0 0 0.333333 0 0 0 0.08 0"/><feBlend in2="BackgroundImageFix" result="effect1_dropShadow_9428_4856"/><feBlend in="SourceGraphic" in2="effect1_dropShadow_9428_4856" result="shape"/></filter><filter id="filter2_d_9428_4856" width="17" height="17" x="72" y="73" color-interpolation-filters="sRGB" filterUnits="userSpaceOnUse"><feFlood flood-opacity="0" result="BackgroundImageFix"/><feColorMatrix in="SourceAlpha" result="hardAlpha" values="0 0 0 0 0 0 0 0 0 0 0 0 0 0 0 0 0 0 127 0"/><feOffset dy="2"/><feGaussianBlur stdDeviation="2"/><feComposite in2="hardAlpha" operator="out"/><feColorMatrix values="0 0 0 0 0.2 0 0 0 0 0.254902 0 0 0 0 0.333333 0 0 0 0.08 0"/><feBlend in2="BackgroundImageFix" result="effect1_dropShadow_9428_4856"/><feBlend in="SourceGraphic" in2="effect1_dropShadow_9428_4856" result="shape"/></filter><filter id="filter3_d_9428_4856" width="17" height="17" x="72" y="913" color-interpolation-filters="sRGB" filterUnits="userSpaceOnUse"><feFlood flood-opacity="0" result="BackgroundImageFix"/><feColorMatrix in="SourceAlpha" result="hardAlpha" values="0 0 0 0 0 0 0 0 0 0 0 0 0 0 0 0 0 0 127 0"/><feOffset dy="2"/><feGaussianBlur stdDeviation="2"/><feComposite in2="hardAlpha" operator="out"/><feColorMatrix values="0 0 0 0 0.2 0 0 0 0 0.254902 0 0 0 0 0.333333 0 0 0 0.08 0"/><feBlend in2="BackgroundImageFix" result="effect1_dropShadow_9428_4856"/><feBlend in="SourceGraphic" in2="effect1_dropShadow_9428_4856" result="shape"/></filter><linearGradient id="paint0_linear_9428_4856" x1="366" x2="82" y1="653.5" y2="653.5" gradientUnits="userSpaceOnUse"><stop offset=".059" stop-color="#fff" stop-opacity="0"/><stop offset=".726" stop-color="#fff"/></linearGradient><linearGradient id="paint1_linear_9428_4856" x1="993" x2="1359" y1="653.5" y2="653.5" gradientUnits="userSpaceOnUse"><stop offset=".059" stop-color="#fff" stop-opacity="0"/><stop offset=".726" stop-color="#fff"/></linearGradient><clipPath id="clip0_9428_4856"><path fill="#fff" d="M82 388h1277v531H82z"/></clipPath><clipPath id="clip1_9428_4856"><path fill="#fff" d="M82 388h1277v531H82z"/></clipPath></defs></svg>