<svg width="20" height="20" viewBox="0 0 20 20" fill="none" xmlns="http://www.w3.org/2000/svg">
<path d="M17.8123 10.0008C17.8123 10.2495 17.7135 10.4879 17.5377 10.6638C17.3619 10.8396 17.1234 10.9383 16.8748 10.9383H5.39039L9.41539 14.9626C9.59151 15.1387 9.69045 15.3776 9.69045 15.6266C9.69045 15.8757 9.59151 16.1146 9.41539 16.2907C9.23927 16.4668 9.0004 16.5658 8.75132 16.5658C8.50225 16.5658 8.26338 16.4668 8.08726 16.2907L2.46226 10.6657C2.37486 10.5786 2.30552 10.4751 2.2582 10.3611C2.21088 10.2472 2.18652 10.125 2.18652 10.0016C2.18652 9.87824 2.21088 9.75606 2.2582 9.64211C2.30552 9.52815 2.37486 9.42466 2.46226 9.33756L8.08726 3.71256C8.17447 3.62536 8.278 3.55618 8.39194 3.50899C8.50588 3.46179 8.628 3.4375 8.75132 3.4375C8.87465 3.4375 8.99677 3.46179 9.11071 3.50899C9.22465 3.55618 9.32818 3.62536 9.41539 3.71256C9.50259 3.79977 9.57177 3.9033 9.61896 4.01724C9.66616 4.13118 9.69045 4.2533 9.69045 4.37663C9.69045 4.49995 9.66616 4.62207 9.61896 4.73601C9.57177 4.84995 9.50259 4.95348 9.41539 5.04069L5.39039 9.06335H16.8748C17.1234 9.06335 17.3619 9.16212 17.5377 9.33793C17.7135 9.51375 17.8123 9.75221 17.8123 10.0008Z" fill="#475569"/>
</svg>
