<svg xmlns="http://www.w3.org/2000/svg" width="23" height="24" fill="none" viewBox="0 0 23 24"><path fill="#fff" d="M12.486 2.88c1.078.001 1.625.007 2.097.02l.186.007c.215.007.427.017.682.029 1.02.047 1.716.207 2.327.443a4.7 4.7 0 0 1 1.698 1.098c.531.53.86 1.061 1.105 1.687.236.607.398 1.299.445 2.312.012.254.021.465.029.679l.006.184c.014.47.02 1.013.022 2.085v.71l.001.269v.978a74 74 0 0 1-.022 2.085l-.006.185c-.008.213-.018.424-.03.678-.047 1.013-.209 1.704-.445 2.312a4.65 4.65 0 0 1-1.105 1.687 4.7 4.7 0 0 1-1.698 1.098c-.611.235-1.307.396-2.327.443-.255.012-.467.02-.682.028l-.186.006c-.472.014-1.019.02-2.097.023h-1.97a76 76 0 0 1-2.098-.022l-.186-.006-.682-.029c-1.02-.047-1.715-.208-2.326-.443a4.7 4.7 0 0 1-1.698-1.098A4.7 4.7 0 0 1 2.42 18.64c-.237-.608-.397-1.299-.445-2.312l-.028-.678-.006-.185c-.014-.47-.02-1.013-.023-2.085v-1.957c.002-1.072.007-1.615.022-2.085l.006-.184c.007-.214.017-.425.029-.679.047-1.014.208-1.704.445-2.312a4.6 4.6 0 0 1 1.106-1.687A4.7 4.7 0 0 1 5.224 3.38c.61-.236 1.305-.396 2.326-.443l.682-.028.186-.006a76 76 0 0 1 2.098-.022zM11.5 7.64c-2.648 0-4.792 2.134-4.792 4.763s2.146 4.761 4.792 4.761c2.648 0 4.791-2.132 4.791-4.761 0-2.632-2.146-4.762-4.791-4.762m0 1.905a2.866 2.866 0 0 1 2.875 2.858A2.866 2.866 0 0 1 11.5 15.26a2.866 2.866 0 0 1-2.875-2.857A2.866 2.866 0 0 1 11.5 9.545m5.03-3.333c-.66 0-1.197.533-1.197 1.19s.537 1.19 1.198 1.19 1.198-.533 1.198-1.19-.538-1.19-1.198-1.19"/></svg>