<svg xmlns="http://www.w3.org/2000/svg" width="23" height="24" fill="none" viewBox="0 0 23 24"><path fill="#fff" d="M11.735 4.781a96 96 0 0 1 3.153.07l.483.02c1.37.065 2.738.175 3.417.363.906.253 1.617.99 1.858 1.926.383 1.485.431 4.383.437 5.084v.311c-.006.701-.054 3.6-.437 5.084-.244.939-.956 1.677-1.858 1.926-.679.188-2.047.298-3.417.362l-.483.021a96 96 0 0 1-3.153.07h-.469c-1.083-.006-5.613-.055-7.053-.453a2.69 2.69 0 0 1-1.858-1.926c-.383-1.485-.431-4.383-.437-5.084v-.311c.006-.701.054-3.6.437-5.084.244-.939.956-1.677 1.858-1.926 1.44-.398 5.97-.447 7.053-.453zM9.584 9.066v6.667l5.75-3.334z"/></svg>