<svg xmlns="http://www.w3.org/2000/svg" width="24" height="23" fill="none" viewBox="0 0 24 23"><path fill="#0526aa" d="m19.439 8.1.259-.596a4.6 4.6 0 0 1 2.337-2.368l.799-.357a.557.557 0 0 0 0-1.014l-.755-.335a4.6 4.6 0 0 1-2.37-2.45l-.266-.643a.532.532 0 0 0-.992 0l-.266.642a4.6 4.6 0 0 1-2.368 2.45l-.756.336a.558.558 0 0 0 0 1.013l.8.356a4.6 4.6 0 0 1 2.336 2.37l.259.595c.19.436.792.436.983 0m-.492 2.428a6.3 6.3 0 0 0 2.016-.329q.09.68.09 1.381c0 5.814-4.713 10.526-10.527 10.526S0 17.394 0 11.58 4.713 1.054 10.526 1.054c.954 0 1.877.126 2.755.364a6.317 6.317 0 0 0 5.666 9.11m-7.368 0V5.264l-5.263 7.369h3.158v5.263l5.263-7.369z"/></svg>