<svg xmlns="http://www.w3.org/2000/svg" width="109" height="24" fill="none" viewBox="0 0 109 24"><path fill="#000" d="m20.281 9.1.26-.596a4.6 4.6 0 0 1 2.336-2.368l.799-.357a.557.557 0 0 0 0-1.014l-.755-.335a4.6 4.6 0 0 1-2.37-2.449l-.266-.643a.532.532 0 0 0-.991 0l-.267.642a4.6 4.6 0 0 1-2.368 2.45l-.756.336a.558.558 0 0 0 0 1.013l.8.356a4.6 4.6 0 0 1 2.336 2.37l.26.595a.532.532 0 0 0 .982 0m-.491 2.428a6.3 6.3 0 0 0 2.015-.329q.09.68.09 1.381c0 5.814-4.713 10.526-10.526 10.526C5.555 23.106.842 18.394.842 12.58S5.555 2.054 11.37 2.054c.953 0 1.876.126 2.754.364a6.317 6.317 0 0 0 5.667 9.11m-7.369 0V6.264l-5.263 7.369h3.158v5.263l5.263-7.369zM33.264 19V4.455h3.075v6.413h.192l5.235-6.413h3.686l-5.398 6.512L45.516 19h-3.68l-3.984-5.98-1.512 1.847V19zM51.681 4.455l3.516 11.05h.135l3.522-11.05h3.41L57.249 19h-3.963L48.265 4.455zM66.588 19h-3.296l5.022-14.545h3.963L77.29 19h-3.296L70.352 7.778h-.114zm-.206-5.717h7.784v2.4h-7.784zM81.042 19V4.455h5.738q1.648 0 2.813.589 1.17.582 1.782 1.655.618 1.065.618 2.507 0 1.449-.625 2.493-.624 1.037-1.81 1.59-1.18.555-2.856.555H82.86v-2.472h3.345q.88 0 1.463-.241.582-.242.866-.725.292-.483.292-1.2 0-.724-.292-1.222-.284-.497-.873-.752-.582-.264-1.47-.263h-2.074V19zm7.855-6.62L92.512 19h-3.395l-3.537-6.62zm7.27 6.62V4.455h3.075v6.413h.192l5.234-6.413h3.686l-5.398 6.512L108.418 19h-3.679l-3.984-5.98-1.513 1.847V19z"/></svg>