<svg xmlns="http://www.w3.org/2000/svg" width="109" height="24" fill="none" viewBox="0 0 109 24"><path fill="#0526aa" d="m20.28 9.1.26-.596a4.6 4.6 0 0 1 2.337-2.368l.799-.357a.557.557 0 0 0 0-1.014l-.755-.335a4.6 4.6 0 0 1-2.37-2.449l-.266-.643a.532.532 0 0 0-.992 0l-.266.642a4.6 4.6 0 0 1-2.368 2.45l-.756.336a.558.558 0 0 0 0 1.013l.8.356a4.6 4.6 0 0 1 2.336 2.37l.259.595c.19.436.792.436.983 0m-.49 2.428a6.3 6.3 0 0 0 2.015-.329q.09.68.09 1.381c0 5.814-4.713 10.526-10.527 10.526S.842 18.394.842 12.58 5.554 2.054 11.368 2.054c.954 0 1.877.126 2.755.364a6.317 6.317 0 0 0 5.666 9.11m-7.37 0V6.264l-5.262 7.369h3.157v5.263l5.264-7.369z"/><path fill="#030e2f" d="M33.264 19V4.455h3.075v6.413h.192l5.234-6.413h3.686l-5.398 6.512L45.516 19h-3.679l-3.984-5.98-1.513 1.847V19zM51.68 4.455l3.515 11.05h.135l3.523-11.05h3.409L57.249 19h-3.963L48.264 4.455zM66.587 19h-3.295l5.021-14.545h3.963L77.29 19h-3.295L70.35 7.778h-.113zm-.206-5.717h7.784v2.4h-7.784zM81.041 19V4.455h5.739q1.648 0 2.812.589 1.172.582 1.783 1.655.618 1.065.618 2.507 0 1.449-.625 2.493-.625 1.037-1.811 1.59-1.18.555-2.855.555h-3.843v-2.472h3.345q.881 0 1.464-.241.582-.242.866-.725.291-.483.291-1.2 0-.724-.291-1.222-.284-.497-.874-.752-.582-.264-1.47-.263h-2.074V19zm7.855-6.62L92.511 19h-3.395l-3.537-6.62zm7.27 6.62V4.455h3.075v6.413h.192l5.234-6.413h3.686l-5.398 6.512L108.417 19h-3.679l-3.984-5.98-1.513 1.847V19z"/></svg>