<svg xmlns="http://www.w3.org/2000/svg" width="182" height="40" fill="none" viewBox="0 0 182 40"><path fill="#fff" d="m33.802 15.167.432-.993a7.65 7.65 0 0 1 3.894-3.948l1.332-.594a.93.93 0 0 0 0-1.69l-1.258-.56a7.67 7.67 0 0 1-3.949-4.08l-.444-1.072a.886.886 0 0 0-1.653 0l-.444 1.07a7.67 7.67 0 0 1-3.947 4.082l-1.26.562a.93.93 0 0 0 0 1.688l1.334.593a7.65 7.65 0 0 1 3.893 3.949l.431.993a.888.888 0 0 0 1.639 0m-.82 4.045c1.176 0 2.304-.193 3.36-.547q.15 1.13.15 2.302c0 9.69-7.855 17.544-17.544 17.544S1.404 30.656 1.404 20.967 9.258 3.423 18.948 3.423c1.59 0 3.128.21 4.59.607a10.53 10.53 0 0 0 4.33 13.858 10.5 10.5 0 0 0 5.115 1.324m-12.28 0V10.44L11.93 22.721h5.263v8.772l8.772-12.28zM55.44 31.667V7.424h5.126v10.69h.32l8.723-10.69h6.144L66.757 18.28l9.102 13.388h-6.131l-6.64-9.967-2.522 3.078v6.889zM86.135 7.424l5.86 18.419h.225l5.87-18.419h5.683l-8.357 24.243H88.81L80.442 7.424zm24.845 24.243h-5.493l8.369-24.243h6.605l8.357 24.243h-5.492l-6.073-18.703h-.189zm-.344-9.53h12.974v4.002h-12.974zm24.433 9.53V7.424h9.565q2.746 0 4.687.983 1.953.97 2.971 2.758 1.03 1.776 1.03 4.178 0 2.415-1.041 4.155-1.042 1.728-3.019 2.652-1.965.923-4.758.923H138.1v-4.12h5.575q1.467 0 2.438-.402t1.444-1.207q.486-.806.486-2 0-1.208-.486-2.037-.472-.828-1.455-1.254-.971-.438-2.451-.438h-3.456v20.052zm13.092-11.032 6.025 11.032h-5.658l-5.895-11.032zm12.117 11.032V7.424h5.125v10.69h.32l8.724-10.69h6.143l-8.997 10.855 9.104 13.388h-6.132l-6.64-9.967-2.522 3.078v6.889z"/></svg>